<svg width="24" height="24" fill="none" xmlns="http://www.w3.org/2000/svg"><circle cx="12" cy="12" r="11.75" fill="#fff" stroke="#C4C4C4" stroke-width=".5"/><g clip-path="url(#clip0_118_108)"><path d="M8.364 16.84v-5.01l-1.597-1.422-1.432-.789v6.338c0 .489.407.884.909.884h2.12z" fill="#4285F4"/><path d="M15.636 16.84h2.12a.897.897 0 00.91-.883V9.619l-1.623.904-1.407 1.307v5.01z" fill="#34A853"/><path d="M8.364 11.83l-.217-1.958.217-1.874L12 10.65l3.636-2.653.243 1.773-.243 2.059L12 14.482 8.364 11.83z" fill="#EA4335"/><path d="M15.636 7.998v3.832l3.03-2.211V8.44c0-1.094-1.284-1.717-2.182-1.061l-.848.619z" fill="#FBBC04"/><path d="M5.335 9.62l1.394 1.016 1.636 1.194V7.998l-.848-.62c-.9-.655-2.182-.032-2.182 1.062v1.179z" fill="#C5221F"/></g><defs><clipPath id="clip0_118_108"><path fill="#fff" transform="translate(5.333 7.111)" d="M0 0h13.333v9.778H0z"/></clipPath></defs></svg>