<svg width="24" height="24" fill="none" xmlns="http://www.w3.org/2000/svg"><circle cx="12" cy="12" r="11.75" fill="#fff" stroke="#C4C4C4" stroke-width=".5"/><g clip-path="url(#clip0_118_120)"><path d="M12 6a6 6 0 100 11.999A6 6 0 0012 6z" fill="url(#paint0_linear_118_120)"/><path d="M8.716 11.937c1.75-.762 2.916-1.265 3.499-1.508 1.667-.693 2.012-.813 2.238-.817a.4.4 0 01.233.07c.06.049.077.115.085.162.008.047.018.153.01.236-.09.95-.481 3.251-.68 4.314-.084.45-.25.6-.41.615-.349.032-.613-.23-.95-.451-.528-.346-.826-.562-1.34-.9-.592-.39-.207-.605.13-.955.088-.092 1.624-1.488 1.653-1.615.004-.016.008-.075-.028-.106-.035-.031-.086-.02-.124-.012-.053.012-.896.57-2.531 1.673-.24.164-.456.244-.65.24-.214-.005-.627-.121-.934-.22-.375-.123-.674-.188-.647-.395.013-.108.162-.219.446-.332z" fill="#fff"/></g><defs><linearGradient id="paint0_linear_118_120" x1="12" y1="6" x2="12" y2="18" gradientUnits="userSpaceOnUse"><stop stop-color="#2AABEE"/><stop offset="1" stop-color="#229ED9"/></linearGradient><clipPath id="clip0_118_120"><path fill="#fff" transform="translate(6 6)" d="M0 0h12v12H0z"/></clipPath></defs></svg>