<svg width="24" height="24" fill="none" xmlns="http://www.w3.org/2000/svg"><circle cx="12" cy="12" r="11.75" fill="#fff" stroke="#C4C4C4" stroke-width=".5"/><g clip-path="url(#clip0_118_119)"><path d="M4.822 11.91c0 1.26.331 2.491.962 3.576l-1.022 3.706 3.82-.995a7.248 7.248 0 003.445.87h.003c3.973 0 7.207-3.208 7.208-7.151a7.08 7.08 0 00-2.109-5.06A7.19 7.19 0 0012.03 4.76c-3.973 0-7.206 3.208-7.208 7.151" fill="url(#paint0_linear_118_119)"/><path d="M4.565 11.908c0 1.306.343 2.58.997 3.704l-1.06 3.838 3.958-1.03a7.507 7.507 0 003.568.902h.004c4.115 0 7.465-3.324 7.466-7.408a7.331 7.331 0 00-2.185-5.241A7.448 7.448 0 0012.032 4.5c-4.116 0-7.465 3.323-7.467 7.408zm2.357 3.51l-.148-.233a6.107 6.107 0 01-.948-3.277c0-3.395 2.785-6.157 6.208-6.157a6.19 6.19 0 014.388 1.806 6.097 6.097 0 011.816 4.356c-.002 3.395-2.786 6.158-6.206 6.158h-.003a6.235 6.235 0 01-3.158-.859l-.227-.133-2.349.611.627-2.272z" fill="url(#paint1_linear_118_119)"/><path d="M10.165 8.81c-.14-.307-.287-.314-.42-.32-.108-.004-.233-.003-.357-.003a.688.688 0 00-.498.231c-.17.186-.653.633-.653 1.544 0 .912.669 1.792.762 1.916.093.123 1.29 2.052 3.187 2.794 1.576.617 1.897.495 2.239.464.342-.031 1.104-.448 1.26-.88.155-.433.155-.803.108-.88-.047-.078-.171-.124-.358-.217-.186-.092-1.103-.54-1.274-.602-.171-.062-.296-.093-.42.093-.125.185-.482.602-.59.725-.11.124-.219.14-.405.047-.187-.093-.788-.288-1.5-.92a5.58 5.58 0 01-1.038-1.281c-.11-.186-.012-.286.082-.378.083-.083.186-.216.28-.325.093-.108.124-.185.186-.308.062-.124.031-.232-.016-.325-.046-.092-.409-1.008-.575-1.374" fill="#fff"/></g><defs><linearGradient id="paint0_linear_118_119" x1="12" y1="19.192" x2="12" y2="4.759" gradientUnits="userSpaceOnUse"><stop stop-color="#1FAF38"/><stop offset="1" stop-color="#60D669"/></linearGradient><linearGradient id="paint1_linear_118_119" x1="12" y1="19.45" x2="12" y2="4.5" gradientUnits="userSpaceOnUse"><stop stop-color="#F9F9F9"/><stop offset="1" stop-color="#fff"/></linearGradient><clipPath id="clip0_118_119"><path fill="#fff" transform="translate(4.5 4.5)" d="M0 0h15v15H0z"/></clipPath></defs></svg>