<svg width="24" height="24" viewBox="0 0 24 24" fill="none" xmlns="http://www.w3.org/2000/svg">
<circle cx="12" cy="12" r="11.75" fill="white" stroke="#C4C4C4" stroke-width="0.5"/>
<path d="M13.6237 14.055L14.4637 13.215C14.5769 13.1033 14.72 13.0268 14.8758 12.9948C15.0316 12.9629 15.1932 12.9768 15.3412 13.035L16.365 13.4438C16.5145 13.5045 16.6428 13.6081 16.7335 13.7416C16.8243 13.875 16.8735 14.0324 16.875 14.1938V16.0688C16.8741 16.1786 16.851 16.287 16.8071 16.3877C16.7632 16.4883 16.6994 16.579 16.6195 16.6544C16.5397 16.7297 16.4454 16.7881 16.3423 16.826C16.2393 16.8639 16.1296 16.8806 16.02 16.875C8.84624 16.4288 7.39874 10.3538 7.12499 8.02877C7.11228 7.91459 7.12389 7.79902 7.15906 7.68966C7.19422 7.58029 7.25214 7.47961 7.32901 7.39424C7.40588 7.30887 7.49996 7.24074 7.60505 7.19434C7.71014 7.14794 7.82386 7.12431 7.93874 7.12502H9.74999C9.91162 7.12549 10.0694 7.17432 10.2031 7.2652C10.3367 7.35609 10.4401 7.48488 10.5 7.63502L10.9087 8.65877C10.9688 8.80617 10.9842 8.96801 10.9528 9.12407C10.9215 9.28013 10.8448 9.4235 10.7325 9.53627L9.89249 10.3763C9.89249 10.3763 10.3762 13.65 13.6237 14.055Z" fill="#EA4335"/>
</svg>
