<svg width="24" height="24" viewBox="0 0 24 24" fill="none" xmlns="http://www.w3.org/2000/svg">
<circle cx="12" cy="12" r="11.75" fill="white" stroke="#C4C4C4" stroke-width="0.5"/>
<g clip-path="url(#clip0_118_120)">
<path d="M12 6C10.4091 6 8.88187 6.63253 7.75781 7.75734C6.63259 8.8826 6.00031 10.4087 6 12C6 13.5907 6.63281 15.1178 7.75781 16.2427C8.88187 17.3675 10.4091 18 12 18C13.5909 18 15.1181 17.3675 16.2422 16.2427C17.3672 15.1178 18 13.5907 18 12C18 10.4093 17.3672 8.88216 16.2422 7.75734C15.1181 6.63253 13.5909 6 12 6Z" fill="url(#paint0_linear_118_120)"/>
<path d="M8.71592 11.9365C10.4653 11.1745 11.6315 10.6721 12.2147 10.4294C13.8815 9.73631 14.2275 9.61593 14.4534 9.61185C14.5031 9.61106 14.6137 9.62334 14.6859 9.6817C14.7459 9.73091 14.7628 9.79748 14.7712 9.84421C14.7787 9.8909 14.789 9.99731 14.7806 10.0804C14.6906 11.0291 14.2997 13.3314 14.1009 14.3941C14.0175 14.8437 13.8515 14.9945 13.6912 15.0092C13.3425 15.0412 13.0781 14.7789 12.7406 14.5578C12.2128 14.2116 11.9147 13.9961 11.4019 13.6583C10.8094 13.268 11.1937 13.0534 11.5312 12.7027C11.6194 12.611 13.155 11.2146 13.184 11.0879C13.1878 11.0721 13.1915 11.013 13.1559 10.9819C13.1212 10.9506 13.0697 10.9613 13.0322 10.9698C12.9787 10.9818 12.1359 11.5394 10.5009 12.6426C10.2619 12.807 10.0453 12.8871 9.8503 12.8829C9.63655 12.8783 9.22405 12.7618 8.91748 12.6622C8.54248 12.5401 8.24342 12.4755 8.26967 12.268C8.2828 12.16 8.43186 12.0495 8.71592 11.9365V11.9365Z" fill="white"/>
</g>
<defs>
<linearGradient id="paint0_linear_118_120" x1="12" y1="6" x2="12" y2="18" gradientUnits="userSpaceOnUse">
<stop stop-color="#2AABEE"/>
<stop offset="1" stop-color="#229ED9"/>
</linearGradient>
<clipPath id="clip0_118_120">
<rect width="12" height="12" fill="white" transform="translate(6 6)"/>
</clipPath>
</defs>
</svg>
