<svg width="24" height="24" viewBox="0 0 24 24" fill="none" xmlns="http://www.w3.org/2000/svg">
<circle cx="12" cy="12" r="11.75" fill="white" stroke="#C4C4C4" stroke-width="0.5"/>
<g clip-path="url(#clip0_118_119)">
<path d="M4.82193 11.9102C4.82158 13.1705 5.15337 14.4011 5.78427 15.4857L4.7616 19.1916L8.58281 18.1972C9.63971 18.7683 10.8239 19.0675 12.0273 19.0676H12.0304C16.0029 19.0676 19.2367 15.8593 19.2384 11.9158C19.2391 10.005 18.49 8.20809 17.129 6.85623C15.7682 5.50449 13.9584 4.75966 12.0301 4.75879C8.05713 4.75879 4.82363 7.96693 4.82199 11.9102" fill="url(#paint0_linear_118_119)"/>
<path d="M4.56488 11.9079C4.56447 13.2135 4.90815 14.4881 5.56154 15.6116L4.5022 19.4504L8.46043 18.4203C9.55105 19.0105 10.779 19.3217 12.0285 19.3221H12.0317C16.1467 19.3221 19.4966 15.9984 19.4984 11.9138C19.4991 9.9343 18.723 8.07285 17.3134 6.67256C15.9036 5.27244 14.0291 4.50081 12.0317 4.5C7.91594 4.5 4.56658 7.82326 4.56494 11.9079H4.56488ZM6.92209 15.4181L6.7743 15.1853C6.15301 14.2048 5.82508 13.0718 5.82555 11.9084C5.8269 8.51331 8.6108 5.75116 12.034 5.75116C13.6918 5.75186 15.2498 6.39326 16.4216 7.55698C17.5933 8.72081 18.2381 10.2679 18.2377 11.9134C18.2362 15.3084 15.4522 18.0709 12.0317 18.0709H12.0292C10.9155 18.0703 9.82315 17.7735 8.87054 17.2125L8.64384 17.0791L6.29495 17.6903L6.92209 15.4181V15.4181Z" fill="url(#paint1_linear_118_119)"/>
<path d="M10.1652 8.81082C10.0254 8.50251 9.87834 8.49629 9.74542 8.49088C9.63658 8.48623 9.51216 8.48658 9.38785 8.48658C9.26343 8.48658 9.06128 8.53303 8.8904 8.71821C8.71935 8.90356 8.23737 9.35146 8.23737 10.2625C8.23737 11.1735 8.90593 12.0539 8.99913 12.1776C9.09244 12.301 10.2898 14.2303 12.1861 14.9725C13.7621 15.5893 14.0828 15.4666 14.4249 15.4357C14.767 15.4049 15.5287 14.9879 15.6841 14.5555C15.8397 14.1232 15.8397 13.7526 15.793 13.6752C15.7464 13.598 15.622 13.5517 15.4354 13.4591C15.2488 13.3665 14.3316 12.9186 14.1606 12.8568C13.9895 12.795 13.8652 12.7642 13.7407 12.9496C13.6163 13.1347 13.259 13.5517 13.1501 13.6752C13.0414 13.799 12.9325 13.8144 12.7459 13.7218C12.5593 13.6288 11.9584 13.4336 11.2456 12.8028C10.6909 12.312 10.3165 11.7059 10.2077 11.5205C10.0988 11.3354 10.196 11.235 10.2896 11.1427C10.3734 11.0598 10.4762 10.9265 10.5696 10.8184C10.6626 10.7103 10.6936 10.6331 10.7558 10.5097C10.8181 10.3861 10.787 10.2779 10.7404 10.1853C10.6936 10.0927 10.3311 9.17699 10.1652 8.81088" fill="white"/>
</g>
<defs>
<linearGradient id="paint0_linear_118_119" x1="12" y1="19.1916" x2="12" y2="4.75879" gradientUnits="userSpaceOnUse">
<stop stop-color="#1FAF38"/>
<stop offset="1" stop-color="#60D669"/>
</linearGradient>
<linearGradient id="paint1_linear_118_119" x1="12.0003" y1="19.4504" x2="12.0003" y2="4.5" gradientUnits="userSpaceOnUse">
<stop stop-color="#F9F9F9"/>
<stop offset="1" stop-color="white"/>
</linearGradient>
<clipPath id="clip0_118_119">
<rect width="15" height="15" fill="white" transform="translate(4.5 4.5)"/>
</clipPath>
</defs>
</svg>
