<svg width="18" height="17" viewBox="0 0 18 17" fill="none" xmlns="http://www.w3.org/2000/svg">
<path d="M8.85234 11.7422C8.86988 11.7646 8.89229 11.7827 8.91788 11.7952C8.94346 11.8077 8.97154 11.8141 9 11.8141C9.02846 11.8141 9.05654 11.8077 9.08212 11.7952C9.10771 11.7827 9.13012 11.7646 9.14766 11.7422L11.7727 8.42109C11.8687 8.29922 11.782 8.11875 11.625 8.11875H9.88828V0.1875C9.88828 0.084375 9.80391 0 9.70078 0H8.29453C8.19141 0 8.10703 0.084375 8.10703 0.1875V8.11641H6.375C6.21797 8.11641 6.13125 8.29688 6.22734 8.41875L8.85234 11.7422ZM17.5781 10.9219H16.1719C16.0687 10.9219 15.9844 11.0062 15.9844 11.1094V14.7188C10.5292 14.7188 7.47076 14.7188 2.01562 14.7188V11.1094C2.01562 11.0062 1.93125 10.9219 1.82812 10.9219H0.421875C0.31875 10.9219 0.234375 11.0062 0.234375 11.1094V15.75C0.234375 16.1648 0.569531 16.5 0.984375 16.5H17.0156C17.4305 16.5 17.7656 16.1648 17.7656 15.75V11.1094C17.7656 11.0062 17.6813 10.9219 17.5781 10.9219Z" fill="#45A8F8"/>
</svg>
