<svg width="24" height="24" viewBox="0 0 24 24" fill="none" xmlns="http://www.w3.org/2000/svg">
<circle cx="12" cy="12" r="11.75" fill="white" stroke="#C4C4C4" stroke-width="0.5"/>
<g clip-path="url(#clip0_118_108)">
<path d="M8.36442 16.8408V11.8298L6.76705 10.4081L5.33466 9.61914V15.9565C5.33466 16.4458 5.74213 16.8408 6.2436 16.8408H8.36442Z" fill="#4285F4"/>
<path d="M15.6357 16.8408H17.7565C18.2595 16.8408 18.6654 16.4443 18.6654 15.9565V9.61914L17.043 10.5228L15.6357 11.8298V16.8408Z" fill="#34A853"/>
<path d="M8.36427 11.8297L8.14691 9.87174L8.36427 7.9978L12 10.6507L15.6357 7.9978L15.8788 9.77057L15.6357 11.8297L12 14.4825L8.36427 11.8297Z" fill="#EA4335"/>
<path d="M15.6357 7.99786V11.8297L18.6654 9.61904V8.43998C18.6654 7.34644 17.3823 6.72305 16.4841 7.37887L15.6357 7.99786Z" fill="#FBBC04"/>
<path d="M5.33539 9.61907L6.72883 10.6359L8.36515 11.8298V7.99788L7.51676 7.37889C6.61693 6.72302 5.33539 7.34647 5.33539 8.43996V9.61901V9.61907Z" fill="#C5221F"/>
</g>
<defs>
<clipPath id="clip0_118_108">
<rect width="13.3333" height="9.77778" fill="white" transform="translate(5.33331 7.11108)"/>
</clipPath>
</defs>
</svg>
